<?xml version="1.0" encoding="utf-8"?>
<!-- Generator: Adobe Illustrator 26.0.1, SVG Export Plug-In . SVG Version: 6.00 Build 0)  -->
<!DOCTYPE svg PUBLIC "-//W3C//DTD SVG 1.1//EN" "http://www.w3.org/Graphics/SVG/1.1/DTD/svg11.dtd" [
	<!ENTITY ns_extend "http://ns.adobe.com/Extensibility/1.0/">
	<!ENTITY ns_ai "http://ns.adobe.com/AdobeIllustrator/10.0/">
	<!ENTITY ns_graphs "http://ns.adobe.com/Graphs/1.0/">
	<!ENTITY ns_vars "http://ns.adobe.com/Variables/1.0/">
	<!ENTITY ns_imrep "http://ns.adobe.com/ImageReplacement/1.0/">
	<!ENTITY ns_sfw "http://ns.adobe.com/SaveForWeb/1.0/">
	<!ENTITY ns_custom "http://ns.adobe.com/GenericCustomNamespace/1.0/">
	<!ENTITY ns_adobe_xpath "http://ns.adobe.com/XPath/1.0/">
]>
<svg version="1.1" id="Layer_1" xmlns:x="&ns_extend;" xmlns:i="&ns_ai;" xmlns:graph="&ns_graphs;"
	 xmlns="http://www.w3.org/2000/svg" xmlns:xlink="http://www.w3.org/1999/xlink" x="0px" y="0px" width="90px" height="90px"
	 viewBox="0 0 90 90" style="enable-background:new 0 0 90 90;" xml:space="preserve">
<style type="text/css">
	.st0{fill:url(#SVGID_1_);}
	.st1{fill:url(#SVGID_00000164476539608160493160000001396894086170933383_);}
	.st2{fill:url(#SVGID_00000055665703212633852150000002888027604492453567_);}
	.st3{fill:url(#SVGID_00000107560266523483116610000018437188660127398810_);}
</style>
<metadata>
	<sfw  xmlns="&ns_sfw;">
		<slices></slices>
		<sliceSourceBounds  bottomLeftOrigin="true" height="84.3" width="90" x="211" y="211.6"></sliceSourceBounds>
	</sfw>
</metadata>
<g>
	<g>
		
			<linearGradient id="SVGID_1_" gradientUnits="userSpaceOnUse" x1="45" y1="48.121" x2="45" y2="83.2007" gradientTransform="matrix(1 0 0 -1 0 92)">
			<stop  offset="0" style="stop-color:#AEDDFF"/>
			<stop  offset="0.9987" style="stop-color:#FFFFFF"/>
		</linearGradient>
		<path class="st0" d="M90,12.9V34c0,4.3-3.5,7.9-7.9,7.9H7.9C3.5,41.8,0,38.3,0,34V12.9C0,8.6,3.5,5,7.9,5h74.3
			C86.5,5,90,8.6,90,12.9z"/>
		
			<linearGradient id="SVGID_00000163060778943900084060000013842434483572466606_" gradientUnits="userSpaceOnUse" x1="70.04" y1="49.4445" x2="70.04" y2="87.2173" gradientTransform="matrix(1 0 0 -1 0 92)">
			<stop  offset="0" style="stop-color:#3F30C5"/>
			<stop  offset="1" style="stop-color:#047AFC"/>
		</linearGradient>
		<path style="fill:url(#SVGID_00000163060778943900084060000013842434483572466606_);" d="M90,12.9V34c0,4.3-3.5,7.9-7.9,7.9H50.1
			V5h32.1C86.5,5,90,8.6,90,12.9z"/>
		
			<linearGradient id="SVGID_00000135667126070368518200000000238425882550256552_" gradientUnits="userSpaceOnUse" x1="71.543" y1="48.121" x2="71.543" y2="83.2007" gradientTransform="matrix(1 0 0 -1 0 92)">
			<stop  offset="0" style="stop-color:#AEDDFF"/>
			<stop  offset="0.9987" style="stop-color:#FFFFFF"/>
		</linearGradient>
		<path style="fill:url(#SVGID_00000135667126070368518200000000238425882550256552_);" d="M81.4,16.2c1,1,1,2.7,0,3.8l-8.7,8.7
			l-1.4,1.4l-0.5,0.5c-1,1-2.7,1-3.8,0l-5.3-5.3c-1-1-1-2.7,0-3.8l0,0c1-1,2.7-1,3.8,0l3.5,3.5l8.7-8.7
			C78.7,15.2,80.4,15.2,81.4,16.2L81.4,16.2z"/>
		
			<linearGradient id="SVGID_00000163071532623436733590000008908419665773450376_" gradientUnits="userSpaceOnUse" x1="23.895" y1="-0.1879" x2="23.895" y2="60.7089" gradientTransform="matrix(1 0 0 -1 0 92)">
			<stop  offset="0" style="stop-color:#3F30C5"/>
			<stop  offset="1" style="stop-color:#047AFC"/>
		</linearGradient>
		<path style="fill:url(#SVGID_00000163071532623436733590000008908419665773450376_);" d="M0.2,75.3L21.1,28c0.9-2,3.8-2.1,4.7,0
			l21.7,47.7c0.9,2.1-1.1,4.3-3.2,3.5l-12.6-4.5v12.1c0,1.4-1.1,2.6-2.6,2.6H18.3c-1.4,0-2.6-1.1-2.6-2.6V74.4L3.5,78.7
			C1.3,79.5-0.7,77.3,0.2,75.3z"/>
	</g>
</g>
</svg>
