<?xml version="1.0" encoding="utf-8"?>
<!-- Generator: Adobe Illustrator 26.0.1, SVG Export Plug-In . SVG Version: 6.00 Build 0)  -->
<!DOCTYPE svg PUBLIC "-//W3C//DTD SVG 1.1//EN" "http://www.w3.org/Graphics/SVG/1.1/DTD/svg11.dtd" [
	<!ENTITY ns_extend "http://ns.adobe.com/Extensibility/1.0/">
	<!ENTITY ns_ai "http://ns.adobe.com/AdobeIllustrator/10.0/">
	<!ENTITY ns_graphs "http://ns.adobe.com/Graphs/1.0/">
	<!ENTITY ns_vars "http://ns.adobe.com/Variables/1.0/">
	<!ENTITY ns_imrep "http://ns.adobe.com/ImageReplacement/1.0/">
	<!ENTITY ns_sfw "http://ns.adobe.com/SaveForWeb/1.0/">
	<!ENTITY ns_custom "http://ns.adobe.com/GenericCustomNamespace/1.0/">
	<!ENTITY ns_adobe_xpath "http://ns.adobe.com/XPath/1.0/">
]>
<svg version="1.1" id="Layer_1" xmlns:x="&ns_extend;" xmlns:i="&ns_ai;" xmlns:graph="&ns_graphs;"
	 xmlns="http://www.w3.org/2000/svg" xmlns:xlink="http://www.w3.org/1999/xlink" x="0px" y="0px" width="90px" height="96px"
	 viewBox="0 0 90 96" style="enable-background:new 0 0 90 96;" xml:space="preserve">
<style type="text/css">
	.st0{fill:url(#SVGID_1_);}
	.st1{fill:url(#SVGID_00000135689240281405605670000011066001662779506366_);}
	.st2{fill:url(#SVGID_00000083781934765080108790000017326650253828003738_);}
	.st3{fill:url(#SVGID_00000082326416207704607340000009147519566265149840_);}
	.st4{fill:url(#SVGID_00000042709103100430317300000002690366887816226489_);}
	.st5{fill:#FF5D73;}
	.st6{fill:#EAF6FF;}
</style>
<metadata>
	<sfw  xmlns="&ns_sfw;">
		<slices></slices>
		<sliceSourceBounds  bottomLeftOrigin="true" height="96" width="90" x="211" y="207.9"></sliceSourceBounds>
	</sfw>
</metadata>
<g>
	<g>
		
			<linearGradient id="SVGID_1_" gradientUnits="userSpaceOnUse" x1="81.5191" y1="115.0096" x2="81.5191" y2="41.444" gradientTransform="matrix(1 0 0 -1 0 95.9013)">
			<stop  offset="0" style="stop-color:#FF235C"/>
			<stop  offset="1" style="stop-color:#FF777E"/>
		</linearGradient>
		<path class="st0" d="M90,56.4H73V19.8c0-4.7,3.8-8.5,8.5-8.5l0,0c4.7,0,8.5,3.8,8.5,8.5L90,56.4L90,56.4z"/>
		
			<linearGradient id="SVGID_00000163061739464700443410000012797343626638864016_" gradientUnits="userSpaceOnUse" x1="81.5287" y1="115.0096" x2="81.5287" y2="41.444" gradientTransform="matrix(1 0 0 -1 0 95.9013)">
			<stop  offset="0" style="stop-color:#FF235C"/>
			<stop  offset="1" style="stop-color:#FF777E"/>
		</linearGradient>
		<path style="fill:url(#SVGID_00000163061739464700443410000012797343626638864016_);" d="M84.3,20.8h-5.6V8.7
			c0-1.5,1.3-2.8,2.8-2.8l0,0c1.5,0,2.8,1.3,2.8,2.8L84.3,20.8L84.3,20.8z"/>
		
			<linearGradient id="SVGID_00000089557272913119627420000005676101459146667444_" gradientUnits="userSpaceOnUse" x1="81.5191" y1="3.7208" x2="81.5191" y2="37.6836" gradientTransform="matrix(1 0 0 -1 0 95.9013)">
			<stop  offset="0" style="stop-color:#FFCBD3"/>
			<stop  offset="0.999" style="stop-color:#FFEDF0"/>
		</linearGradient>
		<path style="fill:url(#SVGID_00000089557272913119627420000005676101459146667444_);" d="M90,56.4H73v18.1
			c0,4.7,3.8,15.9,8.5,15.9l0,0c4.7,0,8.5-11.2,8.5-15.9L90,56.4L90,56.4L90,56.4z"/>
	</g>
	<g>
		
			<linearGradient id="SVGID_00000013169674199801876380000004520313208797048982_" gradientUnits="userSpaceOnUse" x1="33.8175" y1="-9.998894e-02" x2="33.8175" y2="66.6946" gradientTransform="matrix(1 0 0 -1 0 95.9013)">
			<stop  offset="0" style="stop-color:#FF235C"/>
			<stop  offset="1" style="stop-color:#FF777E"/>
		</linearGradient>
		<path style="fill:url(#SVGID_00000013169674199801876380000004520313208797048982_);" d="M64.9,96H2.8C1.2,96,0,94.7,0,93.2V2.8
			C0,1.2,1.3,0,2.8,0h62.1c1.5,0,2.8,1.3,2.8,2.8v90.4C67.6,94.7,66.4,96,64.9,96z"/>
		
			<linearGradient id="SVGID_00000072998018998121214000000004247522008185533332_" gradientUnits="userSpaceOnUse" x1="33.8175" y1="99.0467" x2="33.8175" y2="69.6541" gradientTransform="matrix(1 0 0 -1 0 95.9013)">
			<stop  offset="0" style="stop-color:#FFCBD3"/>
			<stop  offset="0.999" style="stop-color:#FFEDF0"/>
		</linearGradient>
		<path style="fill:url(#SVGID_00000072998018998121214000000004247522008185533332_);" d="M0,28.1V2.8C0,1.2,1.3,0,2.8,0h62.1
			c1.5,0,2.8,1.3,2.8,2.8v25.3H0z"/>
		<g>
			<path class="st5" d="M42.3,16.8H25.4c-1.6,0-2.8-1.3-2.8-2.8l0,0c0-1.6,1.3-2.8,2.8-2.8h16.9c1.6,0,2.8,1.3,2.8,2.8l0,0
				C45.1,15.6,43.9,16.8,42.3,16.8z"/>
			<circle class="st5" cx="14.1" cy="14" r="2.8"/>
			<circle class="st5" cx="53.5" cy="14" r="2.8"/>
		</g>
		<g>
			<path class="st6" d="M22.7,42.4c0,1.5,1.2,2.7,2.7,2.7h27.8c1.5,0,2.7-1.2,2.7-2.7s-1.2-2.7-2.7-2.7H25.4
				C23.9,39.7,22.7,40.9,22.7,42.4z"/>
			<path class="st6" d="M55.9,53.9c0-1.5-1.2-2.7-2.7-2.7H14.4c-1.5,0-2.7,1.2-2.7,2.7c0,1.5,1.2,2.7,2.7,2.7h38.8
				C54.7,56.6,55.9,55.4,55.9,53.9z"/>
			<path class="st6" d="M55.9,65.4c0-1.5-1.2-2.7-2.7-2.7H14.4c-1.5,0-2.7,1.2-2.7,2.7c0,1.5,1.2,2.7,2.7,2.7h38.8
				C54.7,68.1,55.9,66.9,55.9,65.4z"/>
			<path class="st6" d="M55.9,76.9c0-1.5-1.2-2.7-2.7-2.7H14.4c-1.5,0-2.7,1.2-2.7,2.7c0,1.5,1.2,2.7,2.7,2.7h38.8
				C54.7,79.6,55.9,78.4,55.9,76.9z"/>
		</g>
	</g>
</g>
</svg>
