<?xml version="1.0" encoding="utf-8"?>
<!-- Generator: Adobe Illustrator 26.0.1, SVG Export Plug-In . SVG Version: 6.00 Build 0)  -->
<!DOCTYPE svg PUBLIC "-//W3C//DTD SVG 1.1//EN" "http://www.w3.org/Graphics/SVG/1.1/DTD/svg11.dtd" [
	<!ENTITY ns_extend "http://ns.adobe.com/Extensibility/1.0/">
	<!ENTITY ns_ai "http://ns.adobe.com/AdobeIllustrator/10.0/">
	<!ENTITY ns_graphs "http://ns.adobe.com/Graphs/1.0/">
	<!ENTITY ns_vars "http://ns.adobe.com/Variables/1.0/">
	<!ENTITY ns_imrep "http://ns.adobe.com/ImageReplacement/1.0/">
	<!ENTITY ns_sfw "http://ns.adobe.com/SaveForWeb/1.0/">
	<!ENTITY ns_custom "http://ns.adobe.com/GenericCustomNamespace/1.0/">
	<!ENTITY ns_adobe_xpath "http://ns.adobe.com/XPath/1.0/">
]>
<svg version="1.1" id="Layer_1" xmlns:x="&ns_extend;" xmlns:i="&ns_ai;" xmlns:graph="&ns_graphs;"
	 xmlns="http://www.w3.org/2000/svg" xmlns:xlink="http://www.w3.org/1999/xlink" x="0px" y="0px" width="90px" height="90px"
	 viewBox="0 0 90 90" style="enable-background:new 0 0 90 90;" xml:space="preserve">
<style type="text/css">
	.st0{fill:url(#SVGID_1_);}
	.st1{fill:url(#SVGID_00000084515449466191209040000001936676465851056263_);}
	.st2{fill:url(#SVGID_00000155832452161048609560000013875602784292916120_);}
	.st3{fill:url(#SVGID_00000176736149582944915780000014143649444265322654_);}
	.st4{fill:url(#SVGID_00000119098845830583290420000011835791518866388360_);}
	.st5{fill:url(#SVGID_00000174580625596982985680000017626779016176330409_);}
	.st6{fill:url(#SVGID_00000010300309810021868080000015154393119782206872_);}
	.st7{fill:url(#SVGID_00000051345473907339317760000001122561494758201267_);}
	.st8{fill:url(#SVGID_00000009586478279362119370000015605969076414653335_);}
</style>
<metadata>
	<sfw  xmlns="&ns_sfw;">
		<slices></slices>
		<sliceSourceBounds  bottomLeftOrigin="true" height="82.2" width="90" x="0" y="2.6"></sliceSourceBounds>
	</sfw>
</metadata>
<g>
	
		<linearGradient id="SVGID_1_" gradientUnits="userSpaceOnUse" x1="28.8679" y1="513.0829" x2="28.8679" y2="393.9463" gradientTransform="matrix(1 0 0 1 0 -420)">
		<stop  offset="0" style="stop-color:#C1FDE6"/>
		<stop  offset="0.999" style="stop-color:#D4FEEB"/>
	</linearGradient>
	<path class="st0" d="M42.1,84.8L42.1,84.8c0,1.4-1.2,2.6-2.6,2.6H28.7c-7.2,0-13-5.7-13-12.7V69H21v5.5c0,4.3,3.6,7.8,7.9,7.8h10.5
		C40.9,82.3,42.1,83.4,42.1,84.8z"/>
	
		<linearGradient id="SVGID_00000080890896908614221720000001901289221051741585_" gradientUnits="userSpaceOnUse" x1="13.1721" y1="492.7571" x2="13.1721" y2="419.9707" gradientTransform="matrix(1 0 0 1 0 -420)">
		<stop  offset="0" style="stop-color:#2DC89F"/>
		<stop  offset="1" style="stop-color:#90F8A9"/>
	</linearGradient>
	<path style="fill:url(#SVGID_00000080890896908614221720000001901289221051741585_);" d="M4.9,65.4c0,0-11.6-27.6,0.8-55.1
		c0.4-0.8,0.8-1.6,1.4-2.2c1.1-1.2,3-2.9,5.6-2.9h11.2c1.4,0,2.5,1.1,2.5,2.4v15.6c0,1.4-1.1,2.4-2.5,2.4H17c0,0-2.9,11.8,0,26h6.8
		c1.4,0,2.5,1.1,2.5,2.4v15.3c0,1.4-1.1,2.4-2.5,2.4H12.2C12.2,71.8,7.8,71.9,4.9,65.4z"/>
	
		<linearGradient id="SVGID_00000088847951818211876070000005440771977911867012_" gradientUnits="userSpaceOnUse" x1="60.7825" y1="492.7571" x2="60.7825" y2="419.9707" gradientTransform="matrix(1 0 0 1 0 -420)">
		<stop  offset="0" style="stop-color:#2DC89F"/>
		<stop  offset="1" style="stop-color:#90F8A9"/>
	</linearGradient>
	<path style="fill:url(#SVGID_00000088847951818211876070000005440771977911867012_);" d="M82,61.6H39.5c-4.3,0-7.9-3.4-7.9-7.7V23
		c0-4.2,3.5-7.7,7.9-7.7h42.7c4.3,0,7.9,3.4,7.9,7.7v31C89.9,58.1,86.4,61.6,82,61.6z"/>
	
		<linearGradient id="SVGID_00000026851520831018413280000002769393540280897413_" gradientUnits="userSpaceOnUse" x1="26.6828" y1="492.7571" x2="26.6828" y2="419.9707" gradientTransform="matrix(1 0 0 1 0 -420)">
		<stop  offset="0" style="stop-color:#2DC89F"/>
		<stop  offset="1" style="stop-color:#90F8A9"/>
	</linearGradient>
	<path style="fill:url(#SVGID_00000026851520831018413280000002769393540280897413_);" d="M32.3,31.5l-9.6,4.6c-2.1,1-2.1,3.9,0,4.9
		l9.6,4.6V31.5z"/>
	
		<linearGradient id="SVGID_00000070829925212353039700000008108432283669474994_" gradientUnits="userSpaceOnUse" x1="50.3974" y1="513.0829" x2="50.3974" y2="393.9463" gradientTransform="matrix(1 0 0 1 0 -420)">
		<stop  offset="0" style="stop-color:#C1FDE6"/>
		<stop  offset="0.999" style="stop-color:#D4FEEB"/>
	</linearGradient>
	<path style="fill:url(#SVGID_00000070829925212353039700000008108432283669474994_);" d="M56.6,33.1H44.2c-1.2,0-2.1-0.9-2.1-2.1
		l0,0c0-1.2,0.9-2.1,2.1-2.1h12.5c1.2,0,2.1,0.9,2.1,2.1l0,0C58.8,32.1,57.8,33.1,56.6,33.1z"/>
	
		<linearGradient id="SVGID_00000150078424354486465910000013986005217603210375_" gradientUnits="userSpaceOnUse" x1="68.424" y1="513.0829" x2="68.424" y2="393.9463" gradientTransform="matrix(1 0 0 1 0 -420)">
		<stop  offset="0" style="stop-color:#C1FDE6"/>
		<stop  offset="0.999" style="stop-color:#D4FEEB"/>
	</linearGradient>
	<path style="fill:url(#SVGID_00000150078424354486465910000013986005217603210375_);" d="M76.3,51.3H60.5c-1.5,0-2.7-1.2-2.7-2.6
		l0,0c0-1.5,1.2-2.6,2.7-2.6h15.8c1.5,0,2.7,1.2,2.7,2.6l0,0C79,50.1,77.8,51.3,76.3,51.3z"/>
	
		<linearGradient id="SVGID_00000065072742942744556490000010265753379720914059_" gradientUnits="userSpaceOnUse" x1="47.2475" y1="513.0829" x2="47.2475" y2="393.9463" gradientTransform="matrix(1 0 0 1 0 -420)">
		<stop  offset="0" style="stop-color:#C1FDE6"/>
		<stop  offset="0.999" style="stop-color:#D4FEEB"/>
	</linearGradient>
	<path style="fill:url(#SVGID_00000065072742942744556490000010265753379720914059_);" d="M49.9,51.4h-5.4c-1.5,0-2.7-1.2-2.7-2.6
		l0,0c0-1.5,1.2-2.6,2.7-2.6h5.4c1.5,0,2.7,1.2,2.7,2.6l0,0C52.6,50.2,51.4,51.4,49.9,51.4z"/>
	
		<linearGradient id="SVGID_00000083804655783262646410000008964117775117772722_" gradientUnits="userSpaceOnUse" x1="74.1176" y1="513.0829" x2="74.1176" y2="393.9463" gradientTransform="matrix(1 0 0 1 0 -420)">
		<stop  offset="0" style="stop-color:#C1FDE6"/>
		<stop  offset="0.999" style="stop-color:#D4FEEB"/>
	</linearGradient>
	<path style="fill:url(#SVGID_00000083804655783262646410000008964117775117772722_);" d="M76.8,30.9h-5.4c-1.5,0-2.7-1.2-2.7-2.6
		l0,0c0-1.5,1.2-2.6,2.7-2.6h5.4c1.5,0,2.7,1.2,2.7,2.6l0,0C79.5,29.7,78.3,30.9,76.8,30.9z"/>
	
		<linearGradient id="SVGID_00000020370738602957477350000012222010137830383541_" gradientUnits="userSpaceOnUse" x1="56.7869" y1="513.0829" x2="56.7869" y2="393.9463" gradientTransform="matrix(1 0 0 1 0 -420)">
		<stop  offset="0" style="stop-color:#C1FDE6"/>
		<stop  offset="0.999" style="stop-color:#D4FEEB"/>
	</linearGradient>
	<path style="fill:url(#SVGID_00000020370738602957477350000012222010137830383541_);" d="M69.3,41.2H44.2c-1.2,0-2.1-0.9-2.1-2.1
		l0,0c0-1.2,0.9-2.1,2.1-2.1h25.3c1.2,0,2.1,0.9,2.1,2.1l0,0C71.5,40.3,70.5,41.2,69.3,41.2z"/>
</g>
</svg>
